# xmcd
#
# Track frame offsets: 
#        150
#        17095
#        35347
#        55371
#        89848
#        121535
#        142577
#        165682
#        188576
#        211614
#
# Disc length: 3202 seconds
#
# Revision: 0
# Processed by: cddbd v1.4PL0 Copyright (c) Steve Scherf et al.
# Submitted via: ExactAudioCopy v0.90b3
#
DISCID=770c800a
DTITLE=Craig Erickson - Retro Blues Express
DYEAR=1994
DGENRE=Blues
TTITLE0=Wild Little Woman
TTITLE1=Don't Fight The Feeling
TTITLE2=Cold Wind 
TTITLE3=Flyin' Free
TTITLE4=40 Days (40 Nights)
TTITLE5=Me And My Guitar
TTITLE6=Cosmic Farm
TTITLE7=Everybody's Business
TTITLE8=Nightmare Hotel
TTITLE9=Closing Time
EXTD=
EXTT0=
EXTT1=
EXTT2=
EXTT3=
EXTT4=
EXTT5=
EXTT6=
EXTT7=
EXTT8=
EXTT9=
PLAYORDER=
